<svg width="68" height="56" viewBox="0 0 68 56" fill="none" xmlns="http://www.w3.org/2000/svg">
<mask id="path-1-outside-1" maskUnits="userSpaceOnUse" x="-0.578979" y="-0.233398" width="69" height="56" fill="black">
<rect fill="white" x="-0.578979" y="-0.233398" width="69" height="56"/>
<path d="M46.0382 22.993L37.7007 18.8238C37.5094 18.2761 37.2868 17.7441 37.0349 17.2267L39.9844 8.37921C40.09 8.06356 40.0074 7.71447 39.7723 7.47931C39.5381 7.24414 39.188 7.16052 38.8724 7.26713L30.0249 10.2166C29.5075 9.9658 28.9755 9.74318 28.4278 9.55086L24.2586 1.21342C23.9597 0.617663 22.9845 0.617663 22.6856 1.21342L18.5163 9.55086C17.9686 9.74213 17.4366 9.96476 16.9193 10.2166L8.07178 7.26713C7.75718 7.16052 7.40704 7.24414 7.17188 7.47931C6.93671 7.71447 6.85414 8.06356 6.9597 8.37921L9.90817 17.2278C9.65733 17.7451 9.4347 18.2761 9.24343 18.8238L0.904942 22.993C0.609154 23.1425 0.421021 23.4466 0.421021 23.779C0.421021 24.1124 0.609154 24.4165 0.907032 24.565L9.24552 28.7342C9.43679 29.2819 9.65942 29.8139 9.91026 30.3302L6.96075 39.1787C6.85518 39.4944 6.93775 39.8435 7.17292 40.0786C7.34015 40.2459 7.56487 40.3358 7.79481 40.3358C7.88783 40.3358 7.98189 40.3211 8.07283 40.2898L16.9214 37.3403C17.4387 37.5911 17.9697 37.8137 18.5174 38.005L22.6866 46.3435C22.8361 46.6414 23.1402 46.8295 23.4726 46.8295C23.806 46.8295 24.1102 46.6414 24.2586 46.3435L28.4278 38.005C28.9755 37.8137 29.5065 37.5911 30.0238 37.3403L38.8724 40.2887C38.9633 40.3201 39.0574 40.3347 39.1504 40.3347C39.3793 40.3347 39.605 40.2448 39.7723 40.0776C40.0074 39.8424 40.09 39.4933 39.9844 39.1777L37.0349 30.3302C37.2858 29.8128 37.5084 29.2808 37.7007 28.7332L46.0382 24.5639C46.336 24.4144 46.5242 24.1103 46.5242 23.7779C46.5242 23.4466 46.336 23.1425 46.0382 22.993ZM10.1496 23.779C10.1496 16.4324 16.126 10.456 23.4726 10.456C30.8192 10.456 36.7956 16.4324 36.7956 23.779C36.7956 31.1256 30.8192 37.102 23.4726 37.102C16.126 37.102 10.1496 31.1256 10.1496 23.779ZM37.7613 9.49129L35.8591 15.198C34.8275 13.7138 33.5388 12.4251 32.0546 11.3935L37.7613 9.49129ZM23.4736 3.57345L26.1629 8.95197C25.2891 8.79415 24.3924 8.69799 23.4736 8.69799C22.5549 8.69799 21.6582 8.79415 20.7844 8.95197L23.4736 3.57345ZM9.1849 9.49129L14.8916 11.3935C13.4075 12.4251 12.1187 13.7149 11.0871 15.198L9.1849 9.49129ZM3.26602 23.779L8.64559 21.0897C8.48776 21.9645 8.39161 22.8603 8.39161 23.779C8.39161 24.6987 8.48776 25.5945 8.64559 26.4682L3.26602 23.779ZM9.1849 38.0677L11.0871 32.361C12.1187 33.8452 13.4085 35.1349 14.8927 36.1665L9.1849 38.0677ZM23.4736 43.9866L20.7844 38.607C21.6592 38.7648 22.5549 38.861 23.4736 38.861C24.3934 38.861 25.2891 38.7648 26.1629 38.607L23.4736 43.9866ZM37.7613 38.0677L32.0536 36.1655C33.5377 35.1339 34.8275 33.8452 35.858 32.361L37.7613 38.0677ZM38.3006 26.4693C38.4585 25.5955 38.5546 24.6987 38.5546 23.78C38.5546 22.8613 38.4585 21.9645 38.3006 21.0908L43.6792 23.78L38.3006 26.4693ZM67.2607 40.4486C67.1342 40.1006 66.8039 39.8686 66.4339 39.8686H60.2203L64.3164 30.5445C64.4836 30.1619 64.3592 29.7135 64.0174 29.4721C63.6757 29.2328 63.2116 29.2641 62.9075 29.5515L48.0616 43.5727C47.7993 43.8204 47.7146 44.2009 47.8474 44.5364C47.9801 44.8708 48.3041 45.0914 48.6647 45.0914H54.7101L49.9294 53.4591C49.7183 53.8281 49.8019 54.2963 50.129 54.5691C50.2921 54.706 50.4917 54.774 50.6934 54.774C50.893 54.774 51.0937 54.706 51.2568 54.5691L66.9973 41.4228C67.2805 41.1865 67.3861 40.7967 67.2607 40.4486ZM53.8812 50.0863L56.9886 44.6482C57.1443 44.3764 57.1433 44.042 56.9865 43.7702C56.8287 43.4985 56.5391 43.3323 56.2256 43.3323H50.8774L60.9624 33.8086L58.0693 40.3953C57.9501 40.6671 57.9763 40.9806 58.1393 41.2304C58.3013 41.4781 58.5783 41.6287 58.8751 41.6287H64.0112L53.8812 50.0863ZM41.7163 15.8178L41.154 14.1518C41.4989 14.0358 49.666 11.3454 56.6614 14.99C59.9036 16.6801 62.3253 19.4645 63.9087 23.2532C64.6059 21.4545 65.51 19.8209 65.6678 19.5418L67.2 20.4041C66.5583 21.5454 64.8818 24.89 64.8327 26.6438C64.8212 27.0264 64.5651 27.3577 64.1962 27.4643C64.1157 27.4873 64.0342 27.4988 63.9537 27.4988C63.6652 27.4988 63.3882 27.3566 63.2221 27.1068C63.1531 27.0055 61.4463 24.5472 57.9752 24.1699L58.1654 22.4213C59.8754 22.6063 61.2331 23.2094 62.2636 23.8751C60.8411 20.5065 58.7016 18.0388 55.8608 16.5547C49.5385 13.254 41.7947 15.7927 41.7163 15.8178Z"/>
</mask>
<path d="M46.0382 22.993L37.7007 18.8238C37.5094 18.2761 37.2868 17.7441 37.0349 17.2267L39.9844 8.37921C40.09 8.06356 40.0074 7.71447 39.7723 7.47931C39.5381 7.24414 39.188 7.16052 38.8724 7.26713L30.0249 10.2166C29.5075 9.9658 28.9755 9.74318 28.4278 9.55086L24.2586 1.21342C23.9597 0.617663 22.9845 0.617663 22.6856 1.21342L18.5163 9.55086C17.9686 9.74213 17.4366 9.96476 16.9193 10.2166L8.07178 7.26713C7.75718 7.16052 7.40704 7.24414 7.17188 7.47931C6.93671 7.71447 6.85414 8.06356 6.9597 8.37921L9.90817 17.2278C9.65733 17.7451 9.4347 18.2761 9.24343 18.8238L0.904942 22.993C0.609154 23.1425 0.421021 23.4466 0.421021 23.779C0.421021 24.1124 0.609154 24.4165 0.907032 24.565L9.24552 28.7342C9.43679 29.2819 9.65942 29.8139 9.91026 30.3302L6.96075 39.1787C6.85518 39.4944 6.93775 39.8435 7.17292 40.0786C7.34015 40.2459 7.56487 40.3358 7.79481 40.3358C7.88783 40.3358 7.98189 40.3211 8.07283 40.2898L16.9214 37.3403C17.4387 37.5911 17.9697 37.8137 18.5174 38.005L22.6866 46.3435C22.8361 46.6414 23.1402 46.8295 23.4726 46.8295C23.806 46.8295 24.1102 46.6414 24.2586 46.3435L28.4278 38.005C28.9755 37.8137 29.5065 37.5911 30.0238 37.3403L38.8724 40.2887C38.9633 40.3201 39.0574 40.3347 39.1504 40.3347C39.3793 40.3347 39.605 40.2448 39.7723 40.0776C40.0074 39.8424 40.09 39.4933 39.9844 39.1777L37.0349 30.3302C37.2858 29.8128 37.5084 29.2808 37.7007 28.7332L46.0382 24.5639C46.336 24.4144 46.5242 24.1103 46.5242 23.7779C46.5242 23.4466 46.336 23.1425 46.0382 22.993ZM10.1496 23.779C10.1496 16.4324 16.126 10.456 23.4726 10.456C30.8192 10.456 36.7956 16.4324 36.7956 23.779C36.7956 31.1256 30.8192 37.102 23.4726 37.102C16.126 37.102 10.1496 31.1256 10.1496 23.779ZM37.7613 9.49129L35.8591 15.198C34.8275 13.7138 33.5388 12.4251 32.0546 11.3935L37.7613 9.49129ZM23.4736 3.57345L26.1629 8.95197C25.2891 8.79415 24.3924 8.69799 23.4736 8.69799C22.5549 8.69799 21.6582 8.79415 20.7844 8.95197L23.4736 3.57345ZM9.1849 9.49129L14.8916 11.3935C13.4075 12.4251 12.1187 13.7149 11.0871 15.198L9.1849 9.49129ZM3.26602 23.779L8.64559 21.0897C8.48776 21.9645 8.39161 22.8603 8.39161 23.779C8.39161 24.6987 8.48776 25.5945 8.64559 26.4682L3.26602 23.779ZM9.1849 38.0677L11.0871 32.361C12.1187 33.8452 13.4085 35.1349 14.8927 36.1665L9.1849 38.0677ZM23.4736 43.9866L20.7844 38.607C21.6592 38.7648 22.5549 38.861 23.4736 38.861C24.3934 38.861 25.2891 38.7648 26.1629 38.607L23.4736 43.9866ZM37.7613 38.0677L32.0536 36.1655C33.5377 35.1339 34.8275 33.8452 35.858 32.361L37.7613 38.0677ZM38.3006 26.4693C38.4585 25.5955 38.5546 24.6987 38.5546 23.78C38.5546 22.8613 38.4585 21.9645 38.3006 21.0908L43.6792 23.78L38.3006 26.4693ZM67.2607 40.4486C67.1342 40.1006 66.8039 39.8686 66.4339 39.8686H60.2203L64.3164 30.5445C64.4836 30.1619 64.3592 29.7135 64.0174 29.4721C63.6757 29.2328 63.2116 29.2641 62.9075 29.5515L48.0616 43.5727C47.7993 43.8204 47.7146 44.2009 47.8474 44.5364C47.9801 44.8708 48.3041 45.0914 48.6647 45.0914H54.7101L49.9294 53.4591C49.7183 53.8281 49.8019 54.2963 50.129 54.5691C50.2921 54.706 50.4917 54.774 50.6934 54.774C50.893 54.774 51.0937 54.706 51.2568 54.5691L66.9973 41.4228C67.2805 41.1865 67.3861 40.7967 67.2607 40.4486ZM53.8812 50.0863L56.9886 44.6482C57.1443 44.3764 57.1433 44.042 56.9865 43.7702C56.8287 43.4985 56.5391 43.3323 56.2256 43.3323H50.8774L60.9624 33.8086L58.0693 40.3953C57.9501 40.6671 57.9763 40.9806 58.1393 41.2304C58.3013 41.4781 58.5783 41.6287 58.8751 41.6287H64.0112L53.8812 50.0863ZM41.7163 15.8178L41.154 14.1518C41.4989 14.0358 49.666 11.3454 56.6614 14.99C59.9036 16.6801 62.3253 19.4645 63.9087 23.2532C64.6059 21.4545 65.51 19.8209 65.6678 19.5418L67.2 20.4041C66.5583 21.5454 64.8818 24.89 64.8327 26.6438C64.8212 27.0264 64.5651 27.3577 64.1962 27.4643C64.1157 27.4873 64.0342 27.4988 63.9537 27.4988C63.6652 27.4988 63.3882 27.3566 63.2221 27.1068C63.1531 27.0055 61.4463 24.5472 57.9752 24.1699L58.1654 22.4213C59.8754 22.6063 61.2331 23.2094 62.2636 23.8751C60.8411 20.5065 58.7016 18.0388 55.8608 16.5547C49.5385 13.254 41.7947 15.7927 41.7163 15.8178Z" fill="#65A7C7"/>
<path d="M46.0382 22.993L37.7007 18.8238C37.5094 18.2761 37.2868 17.7441 37.0349 17.2267L39.9844 8.37921C40.09 8.06356 40.0074 7.71447 39.7723 7.47931C39.5381 7.24414 39.188 7.16052 38.8724 7.26713L30.0249 10.2166C29.5075 9.9658 28.9755 9.74318 28.4278 9.55086L24.2586 1.21342C23.9597 0.617663 22.9845 0.617663 22.6856 1.21342L18.5163 9.55086C17.9686 9.74213 17.4366 9.96476 16.9193 10.2166L8.07178 7.26713C7.75718 7.16052 7.40704 7.24414 7.17188 7.47931C6.93671 7.71447 6.85414 8.06356 6.9597 8.37921L9.90817 17.2278C9.65733 17.7451 9.4347 18.2761 9.24343 18.8238L0.904942 22.993C0.609154 23.1425 0.421021 23.4466 0.421021 23.779C0.421021 24.1124 0.609154 24.4165 0.907032 24.565L9.24552 28.7342C9.43679 29.2819 9.65942 29.8139 9.91026 30.3302L6.96075 39.1787C6.85518 39.4944 6.93775 39.8435 7.17292 40.0786C7.34015 40.2459 7.56487 40.3358 7.79481 40.3358C7.88783 40.3358 7.98189 40.3211 8.07283 40.2898L16.9214 37.3403C17.4387 37.5911 17.9697 37.8137 18.5174 38.005L22.6866 46.3435C22.8361 46.6414 23.1402 46.8295 23.4726 46.8295C23.806 46.8295 24.1102 46.6414 24.2586 46.3435L28.4278 38.005C28.9755 37.8137 29.5065 37.5911 30.0238 37.3403L38.8724 40.2887C38.9633 40.3201 39.0574 40.3347 39.1504 40.3347C39.3793 40.3347 39.605 40.2448 39.7723 40.0776C40.0074 39.8424 40.09 39.4933 39.9844 39.1777L37.0349 30.3302C37.2858 29.8128 37.5084 29.2808 37.7007 28.7332L46.0382 24.5639C46.336 24.4144 46.5242 24.1103 46.5242 23.7779C46.5242 23.4466 46.336 23.1425 46.0382 22.993ZM10.1496 23.779C10.1496 16.4324 16.126 10.456 23.4726 10.456C30.8192 10.456 36.7956 16.4324 36.7956 23.779C36.7956 31.1256 30.8192 37.102 23.4726 37.102C16.126 37.102 10.1496 31.1256 10.1496 23.779ZM37.7613 9.49129L35.8591 15.198C34.8275 13.7138 33.5388 12.4251 32.0546 11.3935L37.7613 9.49129ZM23.4736 3.57345L26.1629 8.95197C25.2891 8.79415 24.3924 8.69799 23.4736 8.69799C22.5549 8.69799 21.6582 8.79415 20.7844 8.95197L23.4736 3.57345ZM9.1849 9.49129L14.8916 11.3935C13.4075 12.4251 12.1187 13.7149 11.0871 15.198L9.1849 9.49129ZM3.26602 23.779L8.64559 21.0897C8.48776 21.9645 8.39161 22.8603 8.39161 23.779C8.39161 24.6987 8.48776 25.5945 8.64559 26.4682L3.26602 23.779ZM9.1849 38.0677L11.0871 32.361C12.1187 33.8452 13.4085 35.1349 14.8927 36.1665L9.1849 38.0677ZM23.4736 43.9866L20.7844 38.607C21.6592 38.7648 22.5549 38.861 23.4736 38.861C24.3934 38.861 25.2891 38.7648 26.1629 38.607L23.4736 43.9866ZM37.7613 38.0677L32.0536 36.1655C33.5377 35.1339 34.8275 33.8452 35.858 32.361L37.7613 38.0677ZM38.3006 26.4693C38.4585 25.5955 38.5546 24.6987 38.5546 23.78C38.5546 22.8613 38.4585 21.9645 38.3006 21.0908L43.6792 23.78L38.3006 26.4693ZM67.2607 40.4486C67.1342 40.1006 66.8039 39.8686 66.4339 39.8686H60.2203L64.3164 30.5445C64.4836 30.1619 64.3592 29.7135 64.0174 29.4721C63.6757 29.2328 63.2116 29.2641 62.9075 29.5515L48.0616 43.5727C47.7993 43.8204 47.7146 44.2009 47.8474 44.5364C47.9801 44.8708 48.3041 45.0914 48.6647 45.0914H54.7101L49.9294 53.4591C49.7183 53.8281 49.8019 54.2963 50.129 54.5691C50.2921 54.706 50.4917 54.774 50.6934 54.774C50.893 54.774 51.0937 54.706 51.2568 54.5691L66.9973 41.4228C67.2805 41.1865 67.3861 40.7967 67.2607 40.4486ZM53.8812 50.0863L56.9886 44.6482C57.1443 44.3764 57.1433 44.042 56.9865 43.7702C56.8287 43.4985 56.5391 43.3323 56.2256 43.3323H50.8774L60.9624 33.8086L58.0693 40.3953C57.9501 40.6671 57.9763 40.9806 58.1393 41.2304C58.3013 41.4781 58.5783 41.6287 58.8751 41.6287H64.0112L53.8812 50.0863ZM41.7163 15.8178L41.154 14.1518C41.4989 14.0358 49.666 11.3454 56.6614 14.99C59.9036 16.6801 62.3253 19.4645 63.9087 23.2532C64.6059 21.4545 65.51 19.8209 65.6678 19.5418L67.2 20.4041C66.5583 21.5454 64.8818 24.89 64.8327 26.6438C64.8212 27.0264 64.5651 27.3577 64.1962 27.4643C64.1157 27.4873 64.0342 27.4988 63.9537 27.4988C63.6652 27.4988 63.3882 27.3566 63.2221 27.1068C63.1531 27.0055 61.4463 24.5472 57.9752 24.1699L58.1654 22.4213C59.8754 22.6063 61.2331 23.2094 62.2636 23.8751C60.8411 20.5065 58.7016 18.0388 55.8608 16.5547C49.5385 13.254 41.7947 15.7927 41.7163 15.8178Z" stroke="#65A7C7" stroke-width="0.79054" mask="url(#path-1-outside-1)"/>
</svg>
