<svg width="75" height="67" viewBox="0 0 75 67" fill="none" xmlns="http://www.w3.org/2000/svg">
<path d="M18.5079 52.1811V63.6498H43.2313V51.7375C43.2313 51.453 43.3415 51.1796 43.5395 50.9746L43.5396 50.9745L51.2184 43.0391L35.6386 27.4593C35.2103 27.031 35.2103 26.3363 35.6386 25.908L38.2175 23.3291C38.6458 22.9008 39.3405 22.9008 39.7687 23.3291L72.6735 56.235C73.1018 56.6633 73.1018 57.3579 72.6735 57.7862L70.0945 60.3651C69.8796 60.58 69.5987 60.6861 69.3189 60.6861C69.0389 60.6861 68.7569 60.5788 68.5433 60.3651L52.7696 44.5915L45.4255 52.1811V63.6498H65.6176H65.8176V63.8498V65.644V65.844H65.6176H0.998901H0.798904V65.644V63.8498V63.6498H0.998901H16.3137V51.7375C16.3137 51.453 16.4239 51.1796 16.6219 50.9746L16.622 50.9745L24.278 43.063L13.1614 31.9465C12.7331 31.5182 12.7331 30.8235 13.1614 30.3953L15.7392 27.8163L15.7392 27.8163C15.9444 27.6111 16.2234 27.4954 16.5148 27.4954C16.8062 27.4954 17.0852 27.6111 17.2904 27.8163L41.2242 51.7489C41.6524 52.1772 41.6524 52.8718 41.2242 53.3001L38.6452 55.8791C38.44 56.0843 38.161 56.2 37.8696 56.2C37.5782 56.2 37.2992 56.0843 37.094 55.8791L25.8304 44.6154L18.5079 52.1811ZM43.8168 17.5408H43.6168V17.3408V15.5466V15.3466H43.8168H47.7668H47.9668V15.5466V17.3408V17.5408H47.7668H43.8168ZM59.805 27.3859H60.005V27.5859V31.5359V31.7359H59.805H58.0108H57.8108V31.5359V27.5859V27.3859H58.0108H59.805ZM58.0096 5.50265H57.8096V5.30264V1.35266V1.15266H58.0096H59.8038H60.0038V1.35266V5.30264V5.50265H59.8038H58.0096ZM70.0489 17.5408H69.8489V17.3408V15.5466V15.3466H70.0489H73.9989H74.1989V15.5466V17.3408V17.5408H73.9989H70.0489ZM67.5623 9.34158L67.421 9.48294L67.2796 9.34164L66.01 8.07327L65.8685 7.93182L66.01 7.79033L68.8034 4.99809L68.9448 4.85672L69.0862 4.99811L70.3546 6.26649L70.496 6.40791L70.3546 6.54933L67.5623 9.34158ZM49.0112 27.8916L48.8698 28.033L48.7284 27.8916L47.46 26.6232L47.3185 26.4817L47.46 26.3403L50.2534 23.5481L50.3948 23.4067L50.5362 23.5481L51.8046 24.8165L51.9461 24.9579L51.8046 25.0993L49.0112 27.8916ZM67.2795 23.547L67.421 23.4055L67.5624 23.547L70.3535 26.3404L70.4948 26.4818L70.3534 26.6232L69.0851 27.8916L68.9436 28.033L68.8022 27.8915L66.0111 25.0981L65.8698 24.9567L66.0111 24.8153L67.2795 23.547ZM50.5362 9.34158L50.3948 9.48297L50.2534 9.34161L47.46 6.54936L47.3185 6.40794L47.46 6.26649L48.7284 4.99811L48.8698 4.85672L49.0112 4.99809L51.8046 7.79033L51.9461 7.93176L51.8046 8.07321L50.5362 9.34158ZM37.8696 53.5511L38.8962 52.5245L16.5148 30.1431L15.4882 31.1697L37.8696 53.5511ZM69.3189 58.0372L70.3455 57.0106L38.9931 25.6571L37.9665 26.6837L69.3189 58.0372ZM48.217 16.4443C48.217 10.5485 53.0127 5.75394 58.9073 5.75394C64.8018 5.75394 69.5988 10.5497 69.5988 16.4443C69.5988 22.3388 64.8019 27.1357 58.9073 27.1357C53.0127 27.1357 48.217 22.3388 48.217 16.4443ZM58.9073 24.9415C63.592 24.9415 67.4046 21.129 67.4046 16.4443C67.4046 11.7596 63.5921 7.94814 58.9073 7.94814C54.2226 7.94814 50.4112 11.7595 50.4112 16.4443C50.4112 21.129 54.2226 24.9415 58.9073 24.9415Z" fill="#65A7C7" stroke="#65A7C7" stroke-width="0.4"/>
</svg>
