<svg width="70" height="71" viewBox="0 0 70 71" fill="none" xmlns="http://www.w3.org/2000/svg">
<mask id="path-1-outside-1" maskUnits="userSpaceOnUse" x="0.438965" y="-0.299377" width="70" height="71" fill="black">
<rect fill="white" x="0.438965" y="-0.299377" width="70" height="71"/>
<path d="M69.57 58.6286H65.5389V57.0362C65.5389 56.5208 65.1216 56.1036 64.6063 56.1036H58.7413C55.3096 56.1036 52.472 58.662 52.0149 61.9686H32.7348C30.1624 61.9686 28.0697 59.8759 28.0697 57.3035V51.3415L32.6356 42.2087C33.2587 41.992 33.8636 41.7386 34.4511 41.4519L44.3526 44.752C44.4497 44.7844 44.5499 44.7994 44.6481 44.7994C44.8917 44.7994 45.13 44.7035 45.3079 44.5256C45.558 44.2755 45.6453 43.9057 45.5332 43.5704L42.2331 33.67C42.5188 33.0824 42.7732 32.4776 42.9899 31.8533L52.32 27.1883C52.6359 27.0298 52.8353 26.7074 52.8353 26.3538C52.8353 26.0002 52.6359 25.6767 52.32 25.5193L42.9899 20.8543C42.7732 20.2311 42.5188 19.6263 42.2331 19.0376L45.5332 9.13722C45.6453 8.80192 45.558 8.43213 45.3079 8.182C45.0577 7.93188 44.6879 7.84455 44.3526 7.95667L34.4511 11.2568C33.8636 10.9711 33.2587 10.7178 32.6356 10.5L27.9705 1.17527C27.6536 0.542408 26.6175 0.542408 26.3016 1.17527L21.6366 10.5043C21.0134 10.721 20.4086 10.9743 19.821 11.2611L9.92057 7.96099C9.5842 7.84886 9.21548 7.93619 8.96535 8.18631C8.71523 8.43536 8.62898 8.80624 8.74003 9.14153L12.0402 19.043C11.7545 19.6306 11.5011 20.2344 11.2844 20.8575L1.95431 25.5226C1.63842 25.6811 1.43896 26.0034 1.43896 26.357C1.43896 26.7107 1.63842 27.0341 1.95431 27.1915L11.2844 31.8566C11.5011 32.4797 11.7545 33.0835 12.0402 33.671L8.74003 43.5725C8.6279 43.9078 8.71523 44.2776 8.96535 44.5278C9.14325 44.7057 9.38151 44.8016 9.62517 44.8016C9.72435 44.8016 9.82354 44.7865 9.92057 44.7542L19.821 41.454C20.4086 41.7397 21.0134 41.9931 21.6366 42.2109L26.2024 51.3437V57.3057C26.2024 60.9077 29.1328 63.837 32.7337 63.837H52.0127C52.4699 67.1447 55.3086 69.702 58.7391 69.702H64.6041C65.1195 69.702 65.5367 69.2837 65.5367 68.7694V67.177H69.5678V65.3108H65.5367V60.4959H69.57V58.6286ZM12.2073 26.357C12.2073 18.1256 18.9046 11.4272 27.1371 11.4272C35.3697 11.4272 42.067 18.1245 42.067 26.357C42.067 34.5896 35.3697 41.2869 27.1371 41.2869C18.9046 41.2869 12.2073 34.5885 12.2073 26.357ZM43.1721 42.392L36.6171 40.2066C38.3281 39.0315 39.8116 37.5491 40.9867 35.837L43.1721 42.392ZM49.8134 26.357L43.6335 29.4469C43.8211 28.4443 43.9311 27.4136 43.9311 26.357C43.9311 25.3005 43.8211 24.2709 43.6335 23.2671L49.8134 26.357ZM43.1721 10.321L40.9867 16.876C39.8116 15.165 38.3292 13.6815 36.6171 12.5064L43.1721 10.321ZM27.1361 3.67867L30.226 9.85849C29.2233 9.67089 28.1926 9.56092 27.1361 9.56092C26.0795 9.56092 25.0499 9.67089 24.0462 9.85849L27.1361 3.67867ZM11.1011 10.321L17.655 12.5064C15.9441 13.6815 14.4606 15.1639 13.2854 16.876L11.1011 10.321ZM4.45771 26.357L10.6375 23.2671C10.4499 24.2698 10.34 25.3005 10.34 26.357C10.34 27.4136 10.4499 28.4443 10.6375 29.4469L4.45771 26.357ZM11.1011 42.392L13.2865 35.837C14.4616 37.548 15.9441 39.0315 17.6561 40.2066L11.1011 42.392ZM27.1361 43.1521C28.1926 43.1521 29.2222 43.0421 30.226 42.8545L27.1361 49.0343L24.0462 42.8556C25.0499 43.0432 26.0795 43.1521 27.1361 43.1521ZM63.6726 67.8347H58.7402C56.0201 67.8347 53.8078 65.6213 53.8078 62.9022C53.8078 60.1832 56.0201 57.9698 58.7402 57.9698H63.6726V67.8347Z"/>
<path d="M31.1452 28.3795C31.1452 29.1593 30.8564 29.8237 30.2787 30.3724C29.7106 30.9116 28.8826 31.239 27.7947 31.3545V32.972H26.6105V31.3689C25.898 31.3208 25.224 31.1908 24.5886 30.979C23.9531 30.7672 23.4477 30.4976 23.0722 30.1703L23.7221 28.7116C24.0783 29.0005 24.5116 29.246 25.0218 29.4482C25.5321 29.6407 26.0617 29.7611 26.6105 29.8092V26.9208C25.9269 26.7572 25.354 26.5791 24.8919 26.3865C24.4394 26.1843 24.0591 25.8955 23.751 25.52C23.4429 25.1349 23.2888 24.6294 23.2888 24.0036C23.2888 23.2237 23.5728 22.5594 24.1409 22.0106C24.7089 21.4618 25.5321 21.1345 26.6105 21.0286V19.3966H27.7947V20.9997C28.3338 21.0286 28.8586 21.12 29.3688 21.2741C29.8888 21.4281 30.3413 21.6303 30.7264 21.8806L30.1343 23.3393C29.4025 22.9156 28.6227 22.6557 27.7947 22.5594V25.4767C28.4879 25.6403 29.0608 25.8184 29.5133 26.011C29.9754 26.2036 30.3605 26.4924 30.6686 26.8775C30.9863 27.253 31.1452 27.7537 31.1452 28.3795ZM25.1518 23.9169C25.1518 24.2347 25.277 24.4898 25.5273 24.6824C25.7776 24.8749 26.1387 25.0386 26.6105 25.1734V22.6027C26.1194 22.6797 25.7536 22.8338 25.5129 23.0649C25.2722 23.2959 25.1518 23.58 25.1518 23.9169ZM27.7947 29.7803C28.305 29.7033 28.6805 29.5541 28.9212 29.3326C29.1715 29.1112 29.2966 28.8368 29.2966 28.5094C29.2966 28.1821 29.1667 27.9221 28.9067 27.7296C28.6468 27.5274 28.2761 27.3589 27.7947 27.2241V29.7803Z"/>
</mask>
<path d="M69.57 58.6286H65.5389V57.0362C65.5389 56.5208 65.1216 56.1036 64.6063 56.1036H58.7413C55.3096 56.1036 52.472 58.662 52.0149 61.9686H32.7348C30.1624 61.9686 28.0697 59.8759 28.0697 57.3035V51.3415L32.6356 42.2087C33.2587 41.992 33.8636 41.7386 34.4511 41.4519L44.3526 44.752C44.4497 44.7844 44.5499 44.7994 44.6481 44.7994C44.8917 44.7994 45.13 44.7035 45.3079 44.5256C45.558 44.2755 45.6453 43.9057 45.5332 43.5704L42.2331 33.67C42.5188 33.0824 42.7732 32.4776 42.9899 31.8533L52.32 27.1883C52.6359 27.0298 52.8353 26.7074 52.8353 26.3538C52.8353 26.0002 52.6359 25.6767 52.32 25.5193L42.9899 20.8543C42.7732 20.2311 42.5188 19.6263 42.2331 19.0376L45.5332 9.13722C45.6453 8.80192 45.558 8.43213 45.3079 8.182C45.0577 7.93188 44.6879 7.84455 44.3526 7.95667L34.4511 11.2568C33.8636 10.9711 33.2587 10.7178 32.6356 10.5L27.9705 1.17527C27.6536 0.542408 26.6175 0.542408 26.3016 1.17527L21.6366 10.5043C21.0134 10.721 20.4086 10.9743 19.821 11.2611L9.92057 7.96099C9.5842 7.84886 9.21548 7.93619 8.96535 8.18631C8.71523 8.43536 8.62898 8.80624 8.74003 9.14153L12.0402 19.043C11.7545 19.6306 11.5011 20.2344 11.2844 20.8575L1.95431 25.5226C1.63842 25.6811 1.43896 26.0034 1.43896 26.357C1.43896 26.7107 1.63842 27.0341 1.95431 27.1915L11.2844 31.8566C11.5011 32.4797 11.7545 33.0835 12.0402 33.671L8.74003 43.5725C8.6279 43.9078 8.71523 44.2776 8.96535 44.5278C9.14325 44.7057 9.38151 44.8016 9.62517 44.8016C9.72435 44.8016 9.82354 44.7865 9.92057 44.7542L19.821 41.454C20.4086 41.7397 21.0134 41.9931 21.6366 42.2109L26.2024 51.3437V57.3057C26.2024 60.9077 29.1328 63.837 32.7337 63.837H52.0127C52.4699 67.1447 55.3086 69.702 58.7391 69.702H64.6041C65.1195 69.702 65.5367 69.2837 65.5367 68.7694V67.177H69.5678V65.3108H65.5367V60.4959H69.57V58.6286ZM12.2073 26.357C12.2073 18.1256 18.9046 11.4272 27.1371 11.4272C35.3697 11.4272 42.067 18.1245 42.067 26.357C42.067 34.5896 35.3697 41.2869 27.1371 41.2869C18.9046 41.2869 12.2073 34.5885 12.2073 26.357ZM43.1721 42.392L36.6171 40.2066C38.3281 39.0315 39.8116 37.5491 40.9867 35.837L43.1721 42.392ZM49.8134 26.357L43.6335 29.4469C43.8211 28.4443 43.9311 27.4136 43.9311 26.357C43.9311 25.3005 43.8211 24.2709 43.6335 23.2671L49.8134 26.357ZM43.1721 10.321L40.9867 16.876C39.8116 15.165 38.3292 13.6815 36.6171 12.5064L43.1721 10.321ZM27.1361 3.67867L30.226 9.85849C29.2233 9.67089 28.1926 9.56092 27.1361 9.56092C26.0795 9.56092 25.0499 9.67089 24.0462 9.85849L27.1361 3.67867ZM11.1011 10.321L17.655 12.5064C15.9441 13.6815 14.4606 15.1639 13.2854 16.876L11.1011 10.321ZM4.45771 26.357L10.6375 23.2671C10.4499 24.2698 10.34 25.3005 10.34 26.357C10.34 27.4136 10.4499 28.4443 10.6375 29.4469L4.45771 26.357ZM11.1011 42.392L13.2865 35.837C14.4616 37.548 15.9441 39.0315 17.6561 40.2066L11.1011 42.392ZM27.1361 43.1521C28.1926 43.1521 29.2222 43.0421 30.226 42.8545L27.1361 49.0343L24.0462 42.8556C25.0499 43.0432 26.0795 43.1521 27.1361 43.1521ZM63.6726 67.8347H58.7402C56.0201 67.8347 53.8078 65.6213 53.8078 62.9022C53.8078 60.1832 56.0201 57.9698 58.7402 57.9698H63.6726V67.8347Z" fill="#65A7C7"/>
<path d="M31.1452 28.3795C31.1452 29.1593 30.8564 29.8237 30.2787 30.3724C29.7106 30.9116 28.8826 31.239 27.7947 31.3545V32.972H26.6105V31.3689C25.898 31.3208 25.224 31.1908 24.5886 30.979C23.9531 30.7672 23.4477 30.4976 23.0722 30.1703L23.7221 28.7116C24.0783 29.0005 24.5116 29.246 25.0218 29.4482C25.5321 29.6407 26.0617 29.7611 26.6105 29.8092V26.9208C25.9269 26.7572 25.354 26.5791 24.8919 26.3865C24.4394 26.1843 24.0591 25.8955 23.751 25.52C23.4429 25.1349 23.2888 24.6294 23.2888 24.0036C23.2888 23.2237 23.5728 22.5594 24.1409 22.0106C24.7089 21.4618 25.5321 21.1345 26.6105 21.0286V19.3966H27.7947V20.9997C28.3338 21.0286 28.8586 21.12 29.3688 21.2741C29.8888 21.4281 30.3413 21.6303 30.7264 21.8806L30.1343 23.3393C29.4025 22.9156 28.6227 22.6557 27.7947 22.5594V25.4767C28.4879 25.6403 29.0608 25.8184 29.5133 26.011C29.9754 26.2036 30.3605 26.4924 30.6686 26.8775C30.9863 27.253 31.1452 27.7537 31.1452 28.3795ZM25.1518 23.9169C25.1518 24.2347 25.277 24.4898 25.5273 24.6824C25.7776 24.8749 26.1387 25.0386 26.6105 25.1734V22.6027C26.1194 22.6797 25.7536 22.8338 25.5129 23.0649C25.2722 23.2959 25.1518 23.58 25.1518 23.9169ZM27.7947 29.7803C28.305 29.7033 28.6805 29.5541 28.9212 29.3326C29.1715 29.1112 29.2966 28.8368 29.2966 28.5094C29.2966 28.1821 29.1667 27.9221 28.9067 27.7296C28.6468 27.5274 28.2761 27.3589 27.7947 27.2241V29.7803Z" fill="#65A7C7"/>
<path d="M69.57 58.6286H65.5389V57.0362C65.5389 56.5208 65.1216 56.1036 64.6063 56.1036H58.7413C55.3096 56.1036 52.472 58.662 52.0149 61.9686H32.7348C30.1624 61.9686 28.0697 59.8759 28.0697 57.3035V51.3415L32.6356 42.2087C33.2587 41.992 33.8636 41.7386 34.4511 41.4519L44.3526 44.752C44.4497 44.7844 44.5499 44.7994 44.6481 44.7994C44.8917 44.7994 45.13 44.7035 45.3079 44.5256C45.558 44.2755 45.6453 43.9057 45.5332 43.5704L42.2331 33.67C42.5188 33.0824 42.7732 32.4776 42.9899 31.8533L52.32 27.1883C52.6359 27.0298 52.8353 26.7074 52.8353 26.3538C52.8353 26.0002 52.6359 25.6767 52.32 25.5193L42.9899 20.8543C42.7732 20.2311 42.5188 19.6263 42.2331 19.0376L45.5332 9.13722C45.6453 8.80192 45.558 8.43213 45.3079 8.182C45.0577 7.93188 44.6879 7.84455 44.3526 7.95667L34.4511 11.2568C33.8636 10.9711 33.2587 10.7178 32.6356 10.5L27.9705 1.17527C27.6536 0.542408 26.6175 0.542408 26.3016 1.17527L21.6366 10.5043C21.0134 10.721 20.4086 10.9743 19.821 11.2611L9.92057 7.96099C9.5842 7.84886 9.21548 7.93619 8.96535 8.18631C8.71523 8.43536 8.62898 8.80624 8.74003 9.14153L12.0402 19.043C11.7545 19.6306 11.5011 20.2344 11.2844 20.8575L1.95431 25.5226C1.63842 25.6811 1.43896 26.0034 1.43896 26.357C1.43896 26.7107 1.63842 27.0341 1.95431 27.1915L11.2844 31.8566C11.5011 32.4797 11.7545 33.0835 12.0402 33.671L8.74003 43.5725C8.6279 43.9078 8.71523 44.2776 8.96535 44.5278C9.14325 44.7057 9.38151 44.8016 9.62517 44.8016C9.72435 44.8016 9.82354 44.7865 9.92057 44.7542L19.821 41.454C20.4086 41.7397 21.0134 41.9931 21.6366 42.2109L26.2024 51.3437V57.3057C26.2024 60.9077 29.1328 63.837 32.7337 63.837H52.0127C52.4699 67.1447 55.3086 69.702 58.7391 69.702H64.6041C65.1195 69.702 65.5367 69.2837 65.5367 68.7694V67.177H69.5678V65.3108H65.5367V60.4959H69.57V58.6286ZM12.2073 26.357C12.2073 18.1256 18.9046 11.4272 27.1371 11.4272C35.3697 11.4272 42.067 18.1245 42.067 26.357C42.067 34.5896 35.3697 41.2869 27.1371 41.2869C18.9046 41.2869 12.2073 34.5885 12.2073 26.357ZM43.1721 42.392L36.6171 40.2066C38.3281 39.0315 39.8116 37.5491 40.9867 35.837L43.1721 42.392ZM49.8134 26.357L43.6335 29.4469C43.8211 28.4443 43.9311 27.4136 43.9311 26.357C43.9311 25.3005 43.8211 24.2709 43.6335 23.2671L49.8134 26.357ZM43.1721 10.321L40.9867 16.876C39.8116 15.165 38.3292 13.6815 36.6171 12.5064L43.1721 10.321ZM27.1361 3.67867L30.226 9.85849C29.2233 9.67089 28.1926 9.56092 27.1361 9.56092C26.0795 9.56092 25.0499 9.67089 24.0462 9.85849L27.1361 3.67867ZM11.1011 10.321L17.655 12.5064C15.9441 13.6815 14.4606 15.1639 13.2854 16.876L11.1011 10.321ZM4.45771 26.357L10.6375 23.2671C10.4499 24.2698 10.34 25.3005 10.34 26.357C10.34 27.4136 10.4499 28.4443 10.6375 29.4469L4.45771 26.357ZM11.1011 42.392L13.2865 35.837C14.4616 37.548 15.9441 39.0315 17.6561 40.2066L11.1011 42.392ZM27.1361 43.1521C28.1926 43.1521 29.2222 43.0421 30.226 42.8545L27.1361 49.0343L24.0462 42.8556C25.0499 43.0432 26.0795 43.1521 27.1361 43.1521ZM63.6726 67.8347H58.7402C56.0201 67.8347 53.8078 65.6213 53.8078 62.9022C53.8078 60.1832 56.0201 57.9698 58.7402 57.9698H63.6726V67.8347Z" stroke="#65A7C7" stroke-width="0.6" mask="url(#path-1-outside-1)"/>
<path d="M31.1452 28.3795C31.1452 29.1593 30.8564 29.8237 30.2787 30.3724C29.7106 30.9116 28.8826 31.239 27.7947 31.3545V32.972H26.6105V31.3689C25.898 31.3208 25.224 31.1908 24.5886 30.979C23.9531 30.7672 23.4477 30.4976 23.0722 30.1703L23.7221 28.7116C24.0783 29.0005 24.5116 29.246 25.0218 29.4482C25.5321 29.6407 26.0617 29.7611 26.6105 29.8092V26.9208C25.9269 26.7572 25.354 26.5791 24.8919 26.3865C24.4394 26.1843 24.0591 25.8955 23.751 25.52C23.4429 25.1349 23.2888 24.6294 23.2888 24.0036C23.2888 23.2237 23.5728 22.5594 24.1409 22.0106C24.7089 21.4618 25.5321 21.1345 26.6105 21.0286V19.3966H27.7947V20.9997C28.3338 21.0286 28.8586 21.12 29.3688 21.2741C29.8888 21.4281 30.3413 21.6303 30.7264 21.8806L30.1343 23.3393C29.4025 22.9156 28.6227 22.6557 27.7947 22.5594V25.4767C28.4879 25.6403 29.0608 25.8184 29.5133 26.011C29.9754 26.2036 30.3605 26.4924 30.6686 26.8775C30.9863 27.253 31.1452 27.7537 31.1452 28.3795ZM25.1518 23.9169C25.1518 24.2347 25.277 24.4898 25.5273 24.6824C25.7776 24.8749 26.1387 25.0386 26.6105 25.1734V22.6027C26.1194 22.6797 25.7536 22.8338 25.5129 23.0649C25.2722 23.2959 25.1518 23.58 25.1518 23.9169ZM27.7947 29.7803C28.305 29.7033 28.6805 29.5541 28.9212 29.3326C29.1715 29.1112 29.2966 28.8368 29.2966 28.5094C29.2966 28.1821 29.1667 27.9221 28.9067 27.7296C28.6468 27.5274 28.2761 27.3589 27.7947 27.2241V29.7803Z" stroke="#65A7C7" stroke-width="0.6" mask="url(#path-1-outside-1)"/>
</svg>
