<svg width="48" height="40" viewBox="0 0 48 40" fill="none" xmlns="http://www.w3.org/2000/svg">
<path d="M32.5566 2C33.1834 2 41.1751 9.31269 45.0926 12.969L45.8761 33.3401L30.2061 38.0411H2V17.67L16.103 6.70101C21.3264 5.13401 31.9298 2 32.5566 2Z" fill="#CBCBD3"/>
<path d="M11.4015 22.3709H20.02H20.8035V38.041H11.4015V22.3709Z" fill="#F2F2F9"/>
<path fill-rule="evenodd" clip-rule="evenodd" d="M32.0757 0.365048C32.6238 0.20386 33.2161 0.327978 33.6533 0.695617L46.9729 11.8951C47.358 12.2189 47.5803 12.6963 47.5803 13.1995V33.4786C47.5803 34.2311 47.0867 34.8946 46.3658 35.1109L30.6958 39.8119C30.5369 39.8596 30.3719 39.8838 30.2061 39.8838L19.9886 39.8837C19.9831 39.8837 19.9775 39.8838 19.9719 39.8838C19.9663 39.8838 19.9608 39.8837 19.9552 39.8837L12.3695 39.8836C12.3622 39.8837 12.3548 39.8838 12.3475 39.8838C12.3401 39.8838 12.3327 39.8837 12.3254 39.8836L1.99999 39.8835C1.05879 39.8835 0.295807 39.1205 0.295807 38.1794V17.8083C0.295807 17.2824 0.538608 16.786 0.953727 16.4631L15.0568 5.49406C15.2254 5.3629 15.4172 5.26461 15.6222 5.20433L32.0757 0.365048ZM14.0517 36.4753L18.2677 36.4753V25.2277H14.0517V36.4753ZM21.6761 36.4753V23.5235C21.6761 22.5823 20.9131 21.8193 19.9719 21.8193H12.3475C11.4063 21.8193 10.6433 22.5823 10.6433 23.5235V36.4752L3.70419 36.4752V18.6418L16.103 8.99825L28.5019 18.6418V36.4754L21.6761 36.4753ZM31.9103 35.8891L44.1719 32.2106V15.4771L31.9103 19.0834V35.8891ZM30.563 15.9269L42.3491 12.4604L32.1599 3.89303L19.7744 7.53582L30.563 15.9269Z" fill="#F2F2F9"/>
</svg>
