<svg width="671" height="314" viewBox="0 0 671 314" fill="none" xmlns="http://www.w3.org/2000/svg">
<path fill-rule="evenodd" clip-rule="evenodd" d="M273.864 306.341H290.38L285.112 71.5536H279.132L273.864 306.341Z" fill="#CCCDD1"/>
<path fill-rule="evenodd" clip-rule="evenodd" d="M284.268 306.341H290.391L285.123 71.5536H282.844L284.268 306.341Z" fill="#E6E6E6"/>
<path fill-rule="evenodd" clip-rule="evenodd" d="M273.868 82.3744C271.733 86.6459 269.455 94.0496 267.034 96.4701C264.471 99.033 244.111 115.407 234.001 122.668C232.435 123.807 231.154 123.95 230.3 123.238C229.588 122.526 229.588 121.245 230.3 120.533L280.703 70.1295C281.415 69.4175 282.696 69.4175 283.408 70.1295C284.12 70.8414 284.12 72.1228 283.408 72.8347L273.868 82.3744Z" fill="#CCCDD1"/>
<path fill-rule="evenodd" clip-rule="evenodd" d="M276.858 58.8811C274.295 54.8944 268.885 49.199 268.03 45.9242C267.034 42.3647 263.047 16.5937 261.908 4.20644C261.766 2.2131 262.193 1.07401 263.189 0.789243C264.186 0.504479 265.183 1.07404 265.468 2.07071L283.977 70.9835C284.262 71.9802 283.693 72.9768 282.696 73.2616C281.699 73.5464 280.702 72.9768 280.418 71.9801L276.858 58.8811Z" fill="#CCCDD1"/>
<path fill-rule="evenodd" clip-rule="evenodd" d="M295.657 73.1194C300.356 72.8346 308.044 71.1259 311.319 71.9802C314.879 72.9769 339.084 82.3741 350.474 87.4999C352.325 88.3542 353.037 89.3509 352.752 90.3475C352.468 91.3442 351.471 91.9138 350.474 91.629L281.561 73.1194C280.565 72.8346 279.995 71.8378 280.28 70.8411C280.565 69.8444 281.561 69.275 282.558 69.5598L295.657 73.1194Z" fill="#CCCDD1"/>
<path fill-rule="evenodd" clip-rule="evenodd" d="M282.128 62.1563C287.253 62.1563 291.382 66.2854 291.382 71.4111C291.382 76.5369 287.253 80.6659 282.128 80.6659C277.002 80.6659 272.873 76.5369 272.873 71.4111C272.873 66.4278 277.002 62.1563 282.128 62.1563Z" fill="#5F8088"/>
<path fill-rule="evenodd" clip-rule="evenodd" d="M282.127 66.5702C284.832 66.5702 287.11 68.8483 287.11 71.5536C287.11 74.2588 284.832 76.5369 282.127 76.5369C279.422 76.5369 277.143 74.2588 277.143 71.5536C277.143 68.7059 279.422 66.5702 282.127 66.5702Z" fill="#A5D0C5"/>
<path fill-rule="evenodd" clip-rule="evenodd" d="M279.141 65.8581C280.992 65.8581 282.559 67.4244 282.559 69.2753C282.559 71.1263 280.992 72.6925 279.141 72.6925C277.29 72.6925 275.724 71.1263 275.724 69.2753C275.724 67.4244 277.29 65.8581 279.141 65.8581Z" fill="white"/>
<path fill-rule="evenodd" clip-rule="evenodd" d="M148.998 306.34H163.948L159.25 92.9099H153.697L148.998 306.34Z" fill="#CCCDD1"/>
<path fill-rule="evenodd" clip-rule="evenodd" d="M158.395 306.34H163.948L159.249 92.9099H157.113L158.395 306.34Z" fill="#E6E6E6"/>
<path fill-rule="evenodd" clip-rule="evenodd" d="M151.851 104.445C150.997 108.716 150.712 115.835 149.146 118.398C147.437 121.245 133.484 140.325 126.365 149.152C125.226 150.576 124.087 151.003 123.233 150.576C122.378 150.149 122.093 149.01 122.663 148.298L154.984 92.1995C155.411 91.3452 156.55 91.0606 157.262 91.6301C158.116 92.0573 158.401 93.1963 157.831 93.9082L151.851 104.445Z" fill="#CCCDD1"/>
<path fill-rule="evenodd" clip-rule="evenodd" d="M148.859 83.2293C145.585 80.3817 139.605 76.5374 138.038 73.9745C136.33 71.1269 126.79 49.4848 122.803 38.8061C122.234 37.0975 122.376 35.9586 123.231 35.3891C124.085 34.962 125.082 35.2466 125.509 35.9585L157.829 92.0569C158.257 92.9112 157.972 93.9079 157.26 94.335C156.406 94.7622 155.409 94.4775 154.982 93.7656L148.859 83.2293Z" fill="#CCCDD1"/>
<path fill-rule="evenodd" clip-rule="evenodd" d="M168.79 91.2026C172.919 89.7788 179.184 86.5039 182.174 86.5039C185.449 86.5039 209.084 89.0669 220.19 90.9179C221.899 91.2027 222.895 91.9144 222.895 92.9111C222.895 93.9078 222.183 94.6198 221.187 94.6198H156.403C155.406 94.6198 154.694 93.9078 154.694 92.9111C154.694 91.9144 155.406 91.2026 156.403 91.2026H168.79Z" fill="#CCCDD1"/>
<path fill-rule="evenodd" clip-rule="evenodd" d="M156.402 84.5103C161.1 84.5103 164.802 88.3544 164.802 92.9106C164.802 97.6092 160.958 101.311 156.402 101.311C151.846 101.311 148.001 97.4668 148.001 92.9106C148.001 88.212 151.846 84.5103 156.402 84.5103Z" fill="#5F8088"/>
<path fill-rule="evenodd" clip-rule="evenodd" d="M156.4 88.4969C158.82 88.4969 160.956 90.4903 160.956 93.0532C160.956 95.4737 158.962 97.6093 156.4 97.6093C153.979 97.6093 151.843 95.6161 151.843 93.0532C151.986 90.4903 153.979 88.4969 156.4 88.4969Z" fill="#A5D0C5"/>
<path fill-rule="evenodd" clip-rule="evenodd" d="M153.701 87.7848C155.41 87.7848 156.834 89.2087 156.834 90.9173C156.834 92.6259 155.41 94.0496 153.701 94.0496C151.993 94.0496 150.569 92.6259 150.569 90.9173C150.569 89.2087 151.993 87.7848 153.701 87.7848Z" fill="white"/>
<path fill-rule="evenodd" clip-rule="evenodd" d="M39.3611 306.341H52.3178L48.1888 122.242H43.4902L39.3611 306.341Z" fill="#CCCDD1"/>
<path fill-rule="evenodd" clip-rule="evenodd" d="M47.472 306.341H52.313L48.184 122.242H46.333L47.472 306.341Z" fill="#E6E6E6"/>
<path fill-rule="evenodd" clip-rule="evenodd" d="M44.4902 132.778C44.6326 136.48 46.0564 142.46 45.3445 145.023C44.6326 147.728 37.2288 166.807 33.0997 175.777C32.5302 177.201 31.6759 177.771 30.8216 177.628C29.9673 177.486 29.5402 176.632 29.8249 175.777L44.3478 121.815C44.4902 120.96 45.3445 120.533 46.1988 120.818C47.0531 120.96 47.4802 121.815 47.1955 122.669L44.4902 132.778Z" fill="#CCCDD1"/>
<path fill-rule="evenodd" clip-rule="evenodd" d="M37.2262 115.692C33.9515 113.983 28.1138 112.275 26.1205 110.282C24.1271 108.288 11.3128 92.3414 5.61751 84.368C4.76322 83.0866 4.62081 82.0899 5.19034 81.5204C5.75987 80.9509 6.75654 80.9509 7.32607 81.5204L46.7659 121.103C47.3354 121.672 47.3354 122.669 46.7659 123.238C46.1963 123.808 45.1996 123.808 44.6301 123.238L37.2262 115.692Z" fill="#CCCDD1"/>
<path fill-rule="evenodd" clip-rule="evenodd" d="M55.7402 117.971C58.8726 115.977 63.2864 111.706 65.8493 111.136C68.5545 110.424 88.7728 107.292 98.5971 106.437C100.163 106.295 101.018 106.722 101.302 107.434C101.445 108.289 101.018 109 100.306 109.285L46.343 123.666C45.4887 123.808 44.7768 123.381 44.492 122.669C44.3496 121.815 44.7768 121.103 45.4887 120.818L55.7402 117.971Z" fill="#CCCDD1"/>
<path fill-rule="evenodd" clip-rule="evenodd" d="M45.7757 114.837C49.7624 114.837 53.0372 118.112 53.0372 122.099C53.0372 126.085 49.7624 129.36 45.7757 129.36C41.789 129.36 38.5143 126.085 38.5143 122.099C38.5143 118.112 41.789 114.837 45.7757 114.837Z" fill="#5F8088"/>
<path fill-rule="evenodd" clip-rule="evenodd" d="M45.7717 118.255C47.9074 118.255 49.616 119.964 49.616 122.099C49.616 124.235 47.9074 125.944 45.7717 125.944C43.6359 125.944 41.9274 124.235 41.9274 122.099C41.9274 119.964 43.6359 118.255 45.7717 118.255Z" fill="#A5D0C5"/>
<path fill-rule="evenodd" clip-rule="evenodd" d="M43.4992 117.685C45.0654 117.685 46.2045 118.967 46.2045 120.391C46.2045 121.957 44.9231 123.096 43.4992 123.096C41.933 123.096 40.7939 121.815 40.7939 120.391C40.7939 118.967 41.933 117.685 43.4992 117.685Z" fill="white"/>
<path fill-rule="evenodd" clip-rule="evenodd" d="M612.597 225.184C626.693 226.038 637.941 237.856 637.941 252.236C637.941 266.617 626.693 278.292 612.597 279.289V306.626H544.396V220.343C544.396 201.548 559.631 186.314 578.425 186.314C597.22 186.314 612.455 201.548 612.455 220.343V220.485V225.184H612.597Z" fill="#FFC46B"/>
<path fill-rule="evenodd" clip-rule="evenodd" d="M0.00109863 305.85H670.001V313.85H0.00109863V305.85Z" fill="#656666"/>
<path fill-rule="evenodd" clip-rule="evenodd" d="M300.78 149.58C319.005 149.58 333.812 164.387 333.812 182.612V306.342H106.713C103.439 302.213 101.445 296.945 101.445 291.25C101.445 278.293 111.412 267.614 124.226 266.76C107.71 244.406 124.084 204.112 167.51 218.92C166.229 214.933 165.517 210.662 165.517 206.248C165.517 183.609 183.884 165.242 206.523 165.242C220.904 165.242 233.576 172.646 240.979 183.894C244.824 178.341 251.373 174.781 258.635 174.781C262.052 174.781 265.327 175.636 268.174 176.917C270.88 161.54 284.406 149.58 300.78 149.58Z" fill="#FFC46B"/>
<path fill-rule="evenodd" clip-rule="evenodd" d="M452.42 306.341V240.845C452.42 205.677 500.83 194.571 515.353 226.18C530.445 216.356 544.968 217.21 548.385 232.445C572.733 220.769 605.338 223.617 605.338 254.941C615.874 246.398 636.377 252.805 632.391 273.735C652.324 266.331 670.691 286.692 666.562 306.341C599.643 306.341 519.055 306.341 452.42 306.341Z" fill="#E1A345"/>
<path fill-rule="evenodd" clip-rule="evenodd" d="M307.183 231.448C319.997 231.448 330.391 241.842 330.391 254.657V306.341H303.481H191.426C192.992 296.659 201.535 289.255 211.644 289.255C214.492 289.255 217.055 289.825 219.475 290.822C219.333 289.825 219.191 288.828 219.191 287.832C219.191 277.153 227.876 268.468 238.555 268.468C243.538 268.468 248.094 270.319 251.654 273.593C257.207 266.047 266.177 261.206 276.286 261.206C279.418 261.206 282.408 261.633 285.113 262.488C284.259 260.067 283.69 257.362 283.69 254.657C283.832 241.842 294.368 231.448 307.183 231.448Z" fill="#E1A345"/>
<path fill-rule="evenodd" clip-rule="evenodd" d="M616.583 283.133C630.394 283.133 640.076 293.242 639.791 306.484H584.974C589.531 293.242 602.772 283.133 616.583 283.133Z" fill="#FFC46B"/>
<path fill-rule="evenodd" clip-rule="evenodd" d="M199.682 229.312L197.546 223.19L159.53 278.434L161.666 284.556L199.682 229.312Z" fill="#537679"/>
<path fill-rule="evenodd" clip-rule="evenodd" d="M159.543 278.435H66.5681L68.7038 284.557H161.679L159.543 278.435Z" fill="#3B5357"/>
<path fill-rule="evenodd" clip-rule="evenodd" d="M118.68 223.19H104.726L66.5681 278.434H145.875L118.68 223.19Z" fill="#2C3E4B"/>
<path fill-rule="evenodd" clip-rule="evenodd" d="M197.551 223.19H118.672L145.867 278.434H159.535L197.551 223.19Z" fill="#567A81"/>
<path fill-rule="evenodd" clip-rule="evenodd" d="M145.869 278.434H130.064C128.356 278.434 126.79 278.434 125.081 278.434H100.734C99.0251 278.434 97.4589 278.434 95.7503 278.434H71.403H66.4197L69.125 274.305H69.2673L84.9293 251.666L86.9227 248.818H87.065L104.151 224.186L104.72 223.332H118.674L120.667 227.461H106.714L91.9061 248.818H116.253L124.939 236.289L126.932 240.418L121.094 248.818H131.061L133.054 252.947H118.247L103.439 274.305H127.786L137.041 261.063L139.034 265.192L132.77 274.305H143.591L145.869 278.434ZM98.7404 274.305L113.548 252.947H89.2008L74.3931 274.305H98.7404Z" fill="#A0D0C7"/>
<path fill-rule="evenodd" clip-rule="evenodd" d="M197.694 223.19L194.846 227.319H194.704L179.896 248.676C178.899 250.1 178.045 251.381 177.049 252.805L162.241 274.163L159.393 278.292H145.867L143.874 274.163H157.4L172.208 252.805H147.86L139.46 265.05L137.466 260.921L143.019 252.948H133.48L131.486 248.818H145.867L160.675 227.461H136.327L127.357 240.418L125.364 236.289L131.486 227.461H121.093L119.099 223.332H192.995L197.694 223.19ZM165.373 227.461L150.566 248.818H174.913L189.721 227.461H165.373Z" fill="#DAFFEA"/>
<path fill-rule="evenodd" clip-rule="evenodd" d="M126.931 306.768H137.468V284.557H126.931V306.768Z" fill="#537679"/>
<path fill-rule="evenodd" clip-rule="evenodd" d="M311.597 228.886L309.462 222.763L271.446 278.007L273.581 284.13L311.597 228.886Z" fill="#537679"/>
<path fill-rule="evenodd" clip-rule="evenodd" d="M271.449 278.008H178.474L180.61 284.13H273.585L271.449 278.008Z" fill="#3B5357"/>
<path fill-rule="evenodd" clip-rule="evenodd" d="M230.586 222.763H216.632L178.474 278.007H257.781L230.586 222.763Z" fill="#2C3E4B"/>
<path fill-rule="evenodd" clip-rule="evenodd" d="M309.464 222.763H230.585L257.78 278.007H271.448L309.464 222.763Z" fill="#567A81"/>
<path fill-rule="evenodd" clip-rule="evenodd" d="M257.787 278.007H241.982C240.274 278.007 238.708 278.007 236.999 278.007H212.652C210.943 278.007 209.377 278.007 207.668 278.007H183.321H178.338L181.043 273.878H181.185L196.847 251.24L198.841 248.392H198.983L216.069 223.76L216.638 222.906H230.592L232.585 227.035H218.632L203.824 248.392H228.171L236.857 235.862L238.85 239.991L233.012 248.392H242.979L244.972 252.521H230.165L215.357 273.878H239.704L248.959 260.637L250.952 264.766L244.688 273.878H255.509L257.787 278.007ZM210.658 273.878L225.466 252.521H201.119L186.311 273.878H210.658Z" fill="#A0D0C7"/>
<path fill-rule="evenodd" clip-rule="evenodd" d="M309.606 222.763L306.759 226.892H306.616L291.809 248.25C290.812 249.674 289.958 250.955 288.961 252.379L274.153 273.736L271.306 277.865H257.78L255.786 273.736H269.312L284.12 252.379H259.773L251.372 264.624L249.379 260.495L254.932 252.521H245.392L243.399 248.392H257.78L272.587 227.035H248.24L239.27 239.991L237.277 235.862L243.399 227.035H233.005L231.012 222.906H304.908L309.606 222.763ZM277.286 227.035L262.478 248.392H286.825L301.633 227.035H277.286Z" fill="#DAFFEA"/>
<path fill-rule="evenodd" clip-rule="evenodd" d="M238.838 306.342H249.374V284.13H238.838V306.342Z" fill="#537679"/>
<path fill-rule="evenodd" clip-rule="evenodd" d="M37.6569 283.133C51.468 283.133 63.7128 293.242 66.8452 306.484H12.0282C13.1673 293.242 23.8459 283.133 37.6569 283.133Z" fill="#FFC46B"/>
<path fill-rule="evenodd" clip-rule="evenodd" d="M518.628 132.065L548.813 175.919V289.113H488.301V175.919L518.628 132.065Z" fill="#74AFAF"/>
<path fill-rule="evenodd" clip-rule="evenodd" d="M477.473 172.645H328.684V188.876H439.884L439.741 205.25H328.684V289.113H477.473V172.645Z" fill="#388DB7"/>
<path fill-rule="evenodd" clip-rule="evenodd" d="M477.473 172.644H328.684L377.378 102.023H526.31L477.473 172.644Z" fill="#65A7C7"/>
<path fill-rule="evenodd" clip-rule="evenodd" d="M488.294 175.919L526.31 120.818L564.326 175.919V289.113H575.147V172.645L526.31 102.023L477.473 172.645V289.113H488.294V175.919Z" fill="#8DC9E6"/>
<path fill-rule="evenodd" clip-rule="evenodd" d="M564.332 175.92H548.812V289.114H564.332V175.92Z" fill="#E6E6E6"/>
<path fill-rule="evenodd" clip-rule="evenodd" d="M526.311 120.818L518.622 132.066L548.807 175.919H564.327L526.311 120.818Z" fill="#A2A2A2"/>
<path fill-rule="evenodd" clip-rule="evenodd" d="M518.628 132.065L548.813 175.919V289.113H533.293V201.833L502.966 157.979L488.301 179.336V175.919L518.628 132.065Z" fill="#486D6D"/>
<path fill-rule="evenodd" clip-rule="evenodd" d="M439.742 289.113H416.676V237.429H439.742V289.113Z" fill="white"/>
<path fill-rule="evenodd" clip-rule="evenodd" d="M439.745 289.114H421.947V237.429H439.745V289.114Z" fill="#74AFAF"/>
<path fill-rule="evenodd" clip-rule="evenodd" d="M439.889 205.249H333.815V188.875H439.889V205.249Z" fill="#74AFAF"/>
<path fill-rule="evenodd" clip-rule="evenodd" d="M519.478 289.113H308.611V297.798H519.478V289.113Z" fill="#656666"/>
<path fill-rule="evenodd" clip-rule="evenodd" d="M432.481 216.071H448.286V226.75H432.481V216.071Z" fill="white"/>
<path fill-rule="evenodd" clip-rule="evenodd" d="M392.329 226.75V289.113H381.65V216.071H432.481V226.75H392.329Z" fill="#D5D5D5"/>
<path fill-rule="evenodd" clip-rule="evenodd" d="M408.131 226.75V289.113H392.327V226.75H408.131Z" fill="white"/>
<path fill-rule="evenodd" clip-rule="evenodd" d="M408.134 226.75H448.285L439.743 239.137V237.429H416.677V247.965H408.134V226.75Z" fill="#2C6C8B"/>
<path fill-rule="evenodd" clip-rule="evenodd" d="M548.812 175.92V188.877L564.332 175.92H548.812Z" fill="#989898"/>
<path fill-rule="evenodd" clip-rule="evenodd" d="M439.889 205.249H434.194V195.283H333.815V188.875H439.747L439.889 205.249Z" fill="#486D6D"/>
<path fill-rule="evenodd" clip-rule="evenodd" d="M439.745 289.114H433.907V258.644H421.947V237.429H439.745V289.114Z" fill="#486D6D"/>
<path fill-rule="evenodd" clip-rule="evenodd" d="M421.944 258.644L416.676 247.965V237.429H421.944V258.644Z" fill="#B2B2B2"/>
<path fill-rule="evenodd" clip-rule="evenodd" d="M617.008 289.113H519.477V297.798H617.008V289.113Z" fill="#9D9D9D"/>
<path fill-rule="evenodd" clip-rule="evenodd" d="M429.346 226.75H427.21V237.429H429.346V226.75Z" fill="#184E68"/>
<path fill-rule="evenodd" clip-rule="evenodd" d="M416.678 226.75H414.684V247.965H416.678V226.75Z" fill="#184E68"/>
<path fill-rule="evenodd" clip-rule="evenodd" d="M441.874 226.75H439.738V239.137L441.874 236.147V226.75Z" fill="#184E68"/>
<path fill-rule="evenodd" clip-rule="evenodd" d="M573.296 297.798H475.765V306.483H573.296V297.798Z" fill="#434343"/>
<path fill-rule="evenodd" clip-rule="evenodd" d="M475.764 297.798H330.393V306.483H475.764V297.798Z" fill="#292929"/>
<path fill-rule="evenodd" clip-rule="evenodd" d="M408.131 226.75V247.965H402.863L392.327 226.75H408.131Z" fill="#989898"/>
<path fill-rule="evenodd" clip-rule="evenodd" d="M454.413 172.644C453.701 172.644 452.989 172.644 452.277 172.644C468.509 149.152 484.74 125.516 501.114 102.023C501.826 102.023 502.538 102.023 503.25 102.023C487.018 125.516 470.787 149.009 454.413 172.644Z" fill="#388DB7"/>
<path fill-rule="evenodd" clip-rule="evenodd" d="M441.874 172.645C441.162 172.645 440.45 172.645 439.738 172.645C455.97 149.152 472.201 125.516 488.575 102.023C489.287 102.023 489.999 102.023 490.711 102.023C474.337 125.516 458.106 149.009 441.874 172.645Z" fill="#388DB7"/>
<path fill-rule="evenodd" clip-rule="evenodd" d="M429.346 172.644C428.634 172.644 427.922 172.644 427.21 172.644C443.442 149.152 459.673 125.516 476.047 102.023C476.759 102.023 477.471 102.023 478.183 102.023C461.809 125.516 445.577 149.009 429.346 172.644Z" fill="#388DB7"/>
<path fill-rule="evenodd" clip-rule="evenodd" d="M416.678 172.644C415.966 172.644 415.254 172.644 414.542 172.644C430.774 149.152 447.005 125.516 463.379 102.023C464.091 102.023 464.803 102.023 465.515 102.023C449.283 125.516 432.909 149.009 416.678 172.644Z" fill="#388DB7"/>
<path fill-rule="evenodd" clip-rule="evenodd" d="M402.01 172.644L450.847 102.023C451.559 102.023 452.271 102.023 452.983 102.023L404.146 172.644H402.01Z" fill="#388DB7"/>
<path fill-rule="evenodd" clip-rule="evenodd" d="M391.476 172.644C390.764 172.644 390.052 172.644 389.34 172.644C405.572 149.152 421.804 125.516 438.177 102.023C438.889 102.023 439.601 102.023 440.313 102.023C424.082 125.516 407.85 149.009 391.476 172.644Z" fill="#388DB7"/>
<path fill-rule="evenodd" clip-rule="evenodd" d="M378.943 172.645C378.231 172.645 377.52 172.645 376.808 172.645C393.039 149.152 409.271 125.516 425.645 102.023C426.357 102.023 427.068 102.023 427.78 102.023C411.549 125.516 395.175 149.009 378.943 172.645Z" fill="#388DB7"/>
<path fill-rule="evenodd" clip-rule="evenodd" d="M366.415 172.644C365.703 172.644 364.991 172.644 364.279 172.644C380.511 149.152 396.742 125.516 413.116 102.023C413.828 102.023 414.54 102.023 415.252 102.023C398.878 125.516 382.646 149.009 366.415 172.644Z" fill="#388DB7"/>
<path fill-rule="evenodd" clip-rule="evenodd" d="M353.747 172.644C353.035 172.644 352.323 172.644 351.611 172.644C367.842 149.152 384.074 125.516 400.448 102.023C401.16 102.023 401.872 102.023 402.584 102.023C386.352 125.516 370.12 149.009 353.747 172.644Z" fill="#388DB7"/>
<path fill-rule="evenodd" clip-rule="evenodd" d="M467.077 172.644C466.365 172.644 465.654 172.644 464.942 172.644C481.173 149.152 497.405 125.516 513.779 102.023C514.49 102.023 515.202 102.023 515.914 102.023C499.54 125.516 483.309 149.009 467.077 172.644Z" fill="#388DB7"/>
<path fill-rule="evenodd" clip-rule="evenodd" d="M341.218 172.644C340.506 172.644 339.794 172.644 339.082 172.644C355.314 149.152 371.545 125.516 387.919 102.023C388.631 102.023 389.343 102.023 390.055 102.023C373.681 125.516 357.45 149.009 341.218 172.644Z" fill="#388DB7"/>
<path fill-rule="evenodd" clip-rule="evenodd" d="M488.301 273.166L548.813 185.459V175.919L542.121 166.095L488.301 243.978V273.166Z" fill="#A7D5CA"/>
<path fill-rule="evenodd" clip-rule="evenodd" d="M523.469 289.112L548.812 252.236V209.521L493.853 289.112H523.469Z" fill="#A7D5CA"/>
<path fill-rule="evenodd" clip-rule="evenodd" d="M533.284 274.732L548.804 252.236V209.521L533.284 232.018V274.732Z" fill="#5A8B8B"/>
<path fill-rule="evenodd" clip-rule="evenodd" d="M533.289 207.955L548.808 185.459V175.919L542.117 166.095L525.315 190.3L533.289 201.833V207.955Z" fill="#5A8B8B"/>
<path fill-rule="evenodd" clip-rule="evenodd" d="M423.229 205.249L434.478 188.875H414.402L403.154 205.249H423.229Z" fill="#A7D5CA"/>
<path fill-rule="evenodd" clip-rule="evenodd" d="M430.207 195.283L434.478 188.875H414.403L409.989 195.283H430.207Z" fill="#5A8B8B"/>
<path fill-rule="evenodd" clip-rule="evenodd" d="M508.796 113.842L506.66 107.577L468.502 162.821L470.638 168.943L508.796 113.842Z" fill="#537679"/>
<path fill-rule="evenodd" clip-rule="evenodd" d="M468.509 162.82H375.676L377.812 168.943H470.645L468.509 162.82Z" fill="#3B5357"/>
<path fill-rule="evenodd" clip-rule="evenodd" d="M427.788 107.577H413.692L375.676 162.821H454.982L427.788 107.577Z" fill="#2C3E4B"/>
<path fill-rule="evenodd" clip-rule="evenodd" d="M506.659 107.577H427.78L454.975 162.821H468.501L506.659 107.577Z" fill="#567A81"/>
<path fill-rule="evenodd" clip-rule="evenodd" d="M454.982 162.82H439.178C437.469 162.82 435.903 162.82 434.194 162.82H409.847C408.139 162.82 406.572 162.82 404.864 162.82H380.517H375.533L378.238 158.691H378.381L394.043 136.053L396.036 133.205H396.179L413.264 108.573L413.834 107.719H427.787L429.781 111.848H415.827L401.02 133.205H425.367L434.052 120.675L436.045 124.804L430.208 133.205H440.175L442.168 137.334H427.36L412.552 158.691H436.9L446.155 145.45L448.148 149.579L441.883 158.691H452.704L454.982 162.82ZM407.854 158.691L422.662 137.334H398.314L383.507 158.691H407.854Z" fill="#A0D0C7"/>
<path fill-rule="evenodd" clip-rule="evenodd" d="M506.659 107.577L503.812 111.706H503.669L488.862 133.063C487.865 134.487 487.011 135.769 486.014 137.192L471.206 158.55L468.359 162.679H454.832L452.839 158.55H466.365L481.173 137.192H456.826L448.425 149.437L446.432 145.308L451.985 137.335H442.445L440.452 133.206H454.832L469.64 111.848H445.293L436.323 124.805L434.329 120.676L440.452 111.848H430.058L428.065 107.719H501.961L506.659 107.577ZM474.481 111.848L459.673 133.206H484.021L498.828 111.848H474.481Z" fill="#DAFFEA"/>
<path fill-rule="evenodd" clip-rule="evenodd" d="M488.301 240.56H494.423V289.113H497.555V240.56H524.181V289.113H527.313V240.56H545.965V289.113H549.098V240.56V237.428V208.382V205.25V175.919L518.77 132.065L516.919 134.771L524.323 145.449V205.25H497.698V162.535L494.565 166.949V205.25H488.443V208.382H494.565V237.428H488.443V240.56H488.301ZM545.823 237.428H527.171V208.382H545.823V237.428ZM545.823 205.25H527.171V150.006L545.823 176.916V205.25ZM524.039 237.428H497.413V208.382H524.039V237.428Z" fill="#434343"/>
<path fill-rule="evenodd" clip-rule="evenodd" d="M516.055 135.768L522.747 145.592V205.392H524.029V145.592L516.625 134.913L516.055 135.768ZM545.813 240.561H544.532V289.113H545.813V240.561ZM524.029 240.561H522.747V289.113H524.029V240.561ZM494.413 240.561H493.132V289.113H494.413V240.561ZM545.813 208.383H544.532V237.428H545.813V208.383ZM524.029 208.383H522.747V237.428H524.029V208.383ZM494.413 208.383H493.132V237.428H494.413V208.383ZM544.532 176.916V205.25H545.813V176.916L527.161 150.006V151.857L544.532 176.916ZM493.132 168.943V205.392H494.413V167.092L493.132 168.943Z" fill="#656666"/>
<path fill-rule="evenodd" clip-rule="evenodd" d="M467.077 172.645H464.942V289.113H467.077V172.645Z" fill="#2C6C8B"/>
<path fill-rule="evenodd" clip-rule="evenodd" d="M454.413 172.645H452.42V289.113H454.413V172.645Z" fill="#2C6C8B"/>
<path fill-rule="evenodd" clip-rule="evenodd" d="M441.874 172.645H439.738V216.071H441.874V172.645Z" fill="#2C6C8B"/>
<path fill-rule="evenodd" clip-rule="evenodd" d="M429.346 205.25H427.21V216.071H429.346V205.25Z" fill="#2C6C8B"/>
<path fill-rule="evenodd" clip-rule="evenodd" d="M416.678 205.25H414.542C414.542 208.809 414.542 212.369 414.542 215.928H416.678V205.25Z" fill="#2C6C8B"/>
<path fill-rule="evenodd" clip-rule="evenodd" d="M402.01 205.25V216.071H404.146V205.25H402.01Z" fill="#2C6C8B"/>
<path fill-rule="evenodd" clip-rule="evenodd" d="M404.146 172.645H402.01V188.876H404.146V172.645Z" fill="#2C6C8B"/>
<path fill-rule="evenodd" clip-rule="evenodd" d="M389.483 205.25V216.071H391.476V205.25H389.483Z" fill="#2C6C8B"/>
<path fill-rule="evenodd" clip-rule="evenodd" d="M391.476 172.645H389.483V188.876H391.476V172.645Z" fill="#2C6C8B"/>
<path fill-rule="evenodd" clip-rule="evenodd" d="M376.808 205.25V289.113H378.943V205.25H376.808Z" fill="#2C6C8B"/>
<path fill-rule="evenodd" clip-rule="evenodd" d="M378.943 172.645H376.808V188.876H378.943V172.645Z" fill="#2C6C8B"/>
<path fill-rule="evenodd" clip-rule="evenodd" d="M364.279 205.25V289.113H366.415V205.25H364.279Z" fill="#2C6C8B"/>
<path fill-rule="evenodd" clip-rule="evenodd" d="M366.415 172.645H364.279V188.876H366.415V172.645Z" fill="#2C6C8B"/>
<path fill-rule="evenodd" clip-rule="evenodd" d="M351.747 205.25V289.113H353.741V205.25H351.747Z" fill="#2C6C8B"/>
<path fill-rule="evenodd" clip-rule="evenodd" d="M353.741 172.645H351.747V188.876H353.741V172.645Z" fill="#2C6C8B"/>
<path fill-rule="evenodd" clip-rule="evenodd" d="M339.082 205.25V289.113H341.218V205.25H339.082Z" fill="#2C6C8B"/>
<path fill-rule="evenodd" clip-rule="evenodd" d="M341.218 172.645H339.082V188.876H341.218V172.645Z" fill="#2C6C8B"/>
<path fill-rule="evenodd" clip-rule="evenodd" d="M429.346 172.645H427.21V188.876H429.346V172.645Z" fill="#2C6C8B"/>
<path fill-rule="evenodd" clip-rule="evenodd" d="M416.678 172.645H414.542C414.542 178.055 414.542 183.608 414.542 189.019H416.678V172.645Z" fill="#2C6C8B"/>
<path fill-rule="evenodd" clip-rule="evenodd" d="M414.684 247.964V289.112H416.678V247.964H414.684Z" fill="#2C6C8B"/>
<path fill-rule="evenodd" clip-rule="evenodd" d="M439.738 239.137V289.113H441.874V236.147L439.738 239.137Z" fill="#2C6C8B"/>
</svg>
