<svg width="52" height="44" viewBox="0 0 52 44" fill="none" xmlns="http://www.w3.org/2000/svg">
<path d="M35.2341 2.6741C35.9157 2.6741 44.6071 10.627 48.8676 14.6035L49.7197 36.758L32.6778 41.8705H2.00232V19.716L17.3401 7.78668C23.0207 6.08249 34.5524 2.6741 35.2341 2.6741Z" fill="#FFC46B"/>
<path d="M12.2269 24.8285H21.6H22.4521V41.8704H12.2269V24.8285Z" fill="white"/>
<path d="M17.3401 7.93705L2.00232 19.8664V42.0209L32.6778 42.0211M17.3401 7.93705L32.6778 19.8664M17.3401 7.93705L35.2341 2.6741L49.7197 14.8541M32.6778 19.8664L49.7197 14.8541M32.6778 19.8664V42.0211M32.6778 42.0211L49.7197 36.9086V14.8541M13.2557 42.0211V26.082H21.5477V42.0211" stroke="white" stroke-width="3.40839" stroke-linecap="round" stroke-linejoin="round"/>
</svg>
